<svg width="198" height="198" viewBox="0 0 198 198" fill="none" xmlns="http://www.w3.org/2000/svg">
<g clip-path="url(#clip0_6_2)">
<rect width="198" height="198" fill="white"/>
<rect width="198" height="198" fill="#151B22"/>
<path d="M59.082 114.079H59.8779L75.8369 58H98.2588L68.5781 142.616C68.0457 144.151 67.4414 145.613 66.7656 147H169.425V163.059H27V160.884C26.9387 160.859 26.8765 160.837 26.8164 160.812L27 160.31V147H37.2959C37.3634 146.998 37.4314 146.998 37.5 147C39.5218 147.066 42.0632 145.848 43.5215 144.854C45.0129 143.859 46.2224 142.168 47.1504 139.782L48.3936 136.551L21 58H43.2725L59.082 114.079ZM169.425 136.818H148.544V126.588H147.649C146.655 128.709 144.952 130.248 143.382 131.818C141.882 133.318 139.296 134.664 136.413 136.022C133.563 137.381 130.082 138.062 125.973 138.062C120.173 138.061 114.919 136.57 110.213 133.587C105.54 130.571 101.828 126.146 99.0771 120.312C96.3593 114.446 95 107.253 95 98.7354C95 89.9855 96.4084 82.7102 99.2256 76.9102C102.043 71.0769 105.789 66.7185 110.462 63.835C115.168 60.9185 120.322 59.46 125.923 59.46C130.198 59.46 133.762 60.1891 136.612 61.6475C139.496 63.0726 140.885 63.8184 142.882 65.3184C143.882 66.3184 146.721 69.2263 147.649 71.2812H148.296V35H169.425V136.818ZM132.685 76.3135C129.205 76.3135 126.271 77.2583 123.885 79.1475C121.498 81.0367 119.692 83.6554 118.466 87.0029C117.24 90.3504 116.626 94.2286 116.626 98.6367C116.626 103.078 117.24 107.005 118.466 110.419C119.725 113.8 121.532 116.452 123.885 118.374C126.271 120.263 129.205 121.207 132.685 121.207C136.098 121.207 138.982 120.279 141.335 118.423C143.721 116.534 145.544 113.899 146.804 110.519C148.096 107.138 148.743 103.177 148.743 98.6367C148.743 94.096 148.113 90.1513 146.854 86.8037C145.594 83.4563 143.771 80.8707 141.385 79.0479C138.998 77.2251 136.098 76.3135 132.685 76.3135Z" fill="#F2F5F8"/>
</g>
<defs>
<clipPath id="clip0_6_2">
<rect width="198" height="198" fill="white"/>
</clipPath>
</defs>
</svg>
